<?xml version="1.0" encoding="UTF-8"?>
<svg version="1.1" xmlns="http://www.w3.org/2000/svg" width="466" height="250">
<path d="M0 0 C7.25219118 5.62352112 8.82151373 12.86087428 10.78125 21.6796875 C11.11125 13.4296875 11.44125 5.1796875 11.78125 -3.3203125 C18.71125 -3.3203125 25.64125 -3.3203125 32.78125 -3.3203125 C32.78125 6.5796875 32.78125 16.4796875 32.78125 26.6796875 C43.01125 26.6796875 53.24125 26.6796875 63.78125 26.6796875 C63.78125 16.7796875 63.78125 6.8796875 63.78125 -3.3203125 C83.25125 -3.3203125 102.72125 -3.3203125 122.78125 -3.3203125 C122.78125 2.2896875 122.78125 7.8996875 122.78125 13.6796875 C110.24125 13.6796875 97.70125 13.6796875 84.78125 13.6796875 C84.78125 17.9696875 84.78125 22.2596875 84.78125 26.6796875 C98.97125 26.3496875 113.16125 26.0196875 127.78125 25.6796875 C130.04249967 16.55557033 130.04249967 16.55557033 132.29858398 7.43017578 C132.72119507 5.73223877 132.72119507 5.73223877 133.15234375 4 C133.44036865 2.83742676 133.72839355 1.67485352 134.02514648 0.47705078 C134.78125 -2.3203125 134.78125 -2.3203125 135.78125 -4.3203125 C140.23952926 -4.3781429 144.6977128 -4.41385105 149.15625 -4.4453125 C151.06277344 -4.47044922 151.06277344 -4.47044922 153.0078125 -4.49609375 C154.82539063 -4.50576172 154.82539063 -4.50576172 156.6796875 -4.515625 C157.80036621 -4.52609863 158.92104492 -4.53657227 160.07568359 -4.54736328 C162.78125 -4.3203125 162.78125 -4.3203125 164.78125 -2.3203125 C165.42958333 -0.23479782 165.99162868 1.87791097 166.5078125 4 C166.8171875 5.25683594 167.1265625 6.51367188 167.4453125 7.80859375 C167.76577761 9.14058829 168.08608812 10.47262004 168.40625 11.8046875 C168.73372701 13.14468978 169.06184433 14.48453574 169.390625 15.82421875 C170.1938123 19.10783741 170.98834201 22.39357151 171.78125 25.6796875 C178.71125 26.1746875 178.71125 26.1746875 185.78125 26.6796875 C185.78125 16.7796875 185.78125 6.8796875 185.78125 -3.3203125 C193.04125 -3.3203125 200.30125 -3.3203125 207.78125 -3.3203125 C209.72005859 0.22064334 211.65734028 3.76242012 213.59375 7.3046875 C214.14095703 8.30371094 214.68816406 9.30273438 215.25195312 10.33203125 C222.78125 24.11292614 222.78125 24.11292614 222.78125 26.6796875 C227.07125 26.6796875 231.36125 26.6796875 235.78125 26.6796875 C235.78125 16.7796875 235.78125 6.8796875 235.78125 -3.3203125 C242.38125 -3.3203125 248.98125 -3.3203125 255.78125 -3.3203125 C255.78125 6.5796875 255.78125 16.4796875 255.78125 26.6796875 C262.05125 26.6796875 268.32125 26.6796875 274.78125 26.6796875 C274.78125 21.3996875 274.78125 16.1196875 274.78125 10.6796875 C276.43125 10.6796875 278.08125 10.6796875 279.78125 10.6796875 C279.78125 33.1196875 279.78125 55.5596875 279.78125 78.6796875 C278.13125 78.6796875 276.48125 78.6796875 274.78125 78.6796875 C274.78125 74.0596875 274.78125 69.4396875 274.78125 64.6796875 C268.51125 64.6796875 262.24125 64.6796875 255.78125 64.6796875 C255.78125 73.2596875 255.78125 81.8396875 255.78125 90.6796875 C248.52125 90.6796875 241.26125 90.6796875 233.78125 90.6796875 C231.79649646 87.09934777 229.81827671 83.51566109 227.84375 79.9296875 C226.99780273 78.40601562 226.99780273 78.40601562 226.13476562 76.8515625 C225.59658203 75.871875 225.05839844 74.8921875 224.50390625 73.8828125 C224.00640869 72.98208008 223.50891113 72.08134766 222.99633789 71.15332031 C221.78125 68.6796875 221.78125 68.6796875 220.78125 64.6796875 C215.83125 64.6796875 210.88125 64.6796875 205.78125 64.6796875 C205.78125 73.2596875 205.78125 81.8396875 205.78125 90.6796875 C192.25125 90.6796875 178.72125 90.6796875 164.78125 90.6796875 C160.78125 73.6796875 160.78125 73.6796875 160.78125 70.6796875 C153.52125 70.6796875 146.26125 70.6796875 138.78125 70.6796875 C138.4925 72.4946875 138.20375 74.3096875 137.90625 76.1796875 C137.11651583 81.14373084 136.01193626 85.75694246 134.78125 90.6796875 C94.19125 90.6796875 53.60125 90.6796875 11.78125 90.6796875 C11.28625 78.3046875 11.28625 78.3046875 10.78125 65.6796875 C9.79125 69.6396875 8.80125 73.5996875 7.78125 77.6796875 C2.7333753 85.75628701 -2.67358539 89.8508155 -11.96875 92.13671875 C-23.77021283 94.10835737 -35.70946849 93.35205662 -46.3671875 87.5 C-53.38065905 82.32411925 -57.14046143 72.87222988 -58.84594727 64.57788086 C-59.62649325 58.50986421 -59.55121108 52.38774654 -59.53442383 46.27905273 C-59.53127059 43.88283462 -59.55475805 41.48786252 -59.58007812 39.09179688 C-59.63734814 25.46629913 -58.38139971 12.14664652 -48.4375 1.83203125 C-35.81758997 -8.6931806 -13.71337502 -8.16042387 0 0 Z M-34.21875 16.6796875 C-36.1598205 19.92710583 -37.21875 22.84768788 -37.21875 26.6796875 C-28.63875 26.6796875 -20.05875 26.6796875 -11.21875 26.6796875 C-11.35092313 18.21218339 -11.35092313 18.21218339 -14.65625 14.6171875 C-20.88470288 10.29479128 -28.93629353 11.65491183 -34.21875 16.6796875 Z M148.78125 23.6796875 C148.78125 24.6696875 148.78125 25.6596875 148.78125 26.6796875 C149.44125 26.3496875 150.10125 26.0196875 150.78125 25.6796875 C150.12125 25.0196875 149.46125 24.3596875 148.78125 23.6796875 Z M-36.21875 64.6796875 C-34.6831608 70.19322109 -34.6831608 70.19322109 -31.21875 73.6796875 C-28.30788331 74.6499764 -26.31651315 74.84436597 -23.28125 74.8671875 C-21.99927734 74.88845703 -21.99927734 74.88845703 -20.69140625 74.91015625 C-18.02737682 74.66185019 -16.46623579 74.1094606 -14.21875 72.6796875 C-12.10817301 69.73995526 -11.21875 68.33320613 -11.21875 64.6796875 C-19.46875 64.6796875 -27.71875 64.6796875 -36.21875 64.6796875 Z M32.78125 64.6796875 C32.78125 67.6496875 32.78125 70.6196875 32.78125 73.6796875 C43.01125 73.6796875 53.24125 73.6796875 63.78125 73.6796875 C63.78125 70.7096875 63.78125 67.7396875 63.78125 64.6796875 C53.55125 64.6796875 43.32125 64.6796875 32.78125 64.6796875 Z M84.78125 64.6796875 C84.78125 67.6496875 84.78125 70.6196875 84.78125 73.6796875 C95.34125 73.6796875 105.90125 73.6796875 116.78125 73.6796875 C117.44125 70.7096875 118.10125 67.7396875 118.78125 64.6796875 C107.56125 64.6796875 96.34125 64.6796875 84.78125 64.6796875 Z M180.78125 64.6796875 C182.10125 70.6196875 183.42125 76.5596875 184.78125 82.6796875 C185.11125 82.6796875 185.44125 82.6796875 185.78125 82.6796875 C185.78125 76.7396875 185.78125 70.7996875 185.78125 64.6796875 C184.13125 64.6796875 182.48125 64.6796875 180.78125 64.6796875 Z " fill="#FAFAFB" transform="translate(102.21875,47.3203125)"/>
<path d="M0 0 C7.26 0 14.52 0 22 0 C23.93880859 3.54095584 25.87609028 7.08273262 27.8125 10.625 C28.35970703 11.62402344 28.90691406 12.62304688 29.47070312 13.65234375 C37 27.43323864 37 27.43323864 37 30 C41.29 30 45.58 30 50 30 C50 20.1 50 10.2 50 0 C56.6 0 63.2 0 70 0 C70 9.9 70 19.8 70 30 C76.27 30 82.54 30 89 30 C89 24.72 89 19.44 89 14 C90.65 14 92.3 14 94 14 C94 36.44 94 58.88 94 82 C92.35 82 90.7 82 89 82 C89 77.38 89 72.76 89 68 C82.73 68 76.46 68 70 68 C70 76.58 70 85.16 70 94 C62.74 94 55.48 94 48 94 C46.01524646 90.41966027 44.03702671 86.83597359 42.0625 83.25 C41.21655273 81.72632812 41.21655273 81.72632812 40.35351562 80.171875 C39.81533203 79.1921875 39.27714844 78.2125 38.72265625 77.203125 C38.22515869 76.30239258 37.72766113 75.40166016 37.21508789 74.47363281 C36 72 36 72 35 68 C30.05 68 25.1 68 20 68 C20 76.58 20 85.16 20 94 C19.67 94 19.34 94 19 94 C19 85.42 19 76.84 19 68 C11.08 68 3.16 68 -5 68 C-6.26355271 63.08873652 -7.52702325 58.17745205 -8.7902832 53.26611328 C-9.21992215 51.59585339 -9.64960923 49.92560589 -10.0793457 48.25537109 C-10.69755553 45.85257175 -11.31559138 43.44972771 -11.93359375 41.046875 C-12.12529648 40.30193787 -12.31699921 39.55700073 -12.51451111 38.78948975 C-13.35301231 35.52869081 -14.18340551 32.26637796 -15 29 C-10.05 29.33 -5.1 29.66 0 30 C0 20.1 0 10.2 0 0 Z " fill="#1A33B1" transform="translate(288,44)"/>
<path d="M0 0 C6.2386666 4.83761012 8.96765387 11.65554726 10.4765625 19.2265625 C11.03478383 23.72095987 10.89575082 28.15690501 10.78125 32.6796875 C3.85125 32.6796875 -3.07875 32.6796875 -10.21875 32.6796875 C-10.30125 30.9884375 -10.38375 29.2971875 -10.46875 27.5546875 C-10.93678019 22.35955238 -11.80431957 19.59624005 -15.21875 15.6796875 C-19.48543963 12.83522775 -23.21472135 13.18328786 -28.21875 13.6796875 C-31.26827591 14.78270751 -32.62333867 15.59052043 -34.1796875 18.4375 C-34.93665612 20.15283256 -35.58603326 21.91474081 -36.21875 23.6796875 C-36.87875 23.6796875 -37.53875 23.6796875 -38.21875 23.6796875 C-38.24376826 28.03555947 -38.26175806 32.39139157 -38.27368164 36.74731445 C-38.27866084 38.2242099 -38.28544663 39.70110055 -38.29418945 41.17797852 C-38.34347428 49.72744562 -38.23089531 58.17515647 -37.21875 66.6796875 C-36.55875 66.6796875 -35.89875 66.6796875 -35.21875 66.6796875 C-34.579375 67.6490625 -33.94 68.6184375 -33.28125 69.6171875 C-31.50813993 72.92223975 -31.50813993 72.92223975 -28.21875 73.6796875 C-26.57503509 73.77298684 -24.92760323 73.80963894 -23.28125 73.8046875 C-22.42660156 73.80726562 -21.57195312 73.80984375 -20.69140625 73.8125 C-18.35073857 73.68677693 -16.41780756 73.4908954 -14.21875 72.6796875 C-12.98584799 70.22263988 -12.98584799 70.22263988 -12.21875 67.6796875 C-11.88875 67.3496875 -11.55875 67.0196875 -11.21875 66.6796875 C-10.88875 64.0396875 -10.55875 61.3996875 -10.21875 58.6796875 C-3.61875 58.6796875 2.98125 58.6796875 9.78125 58.6796875 C10.11683502 69.4184081 9.98928051 77.03922356 2.51171875 85.14453125 C-6.19513207 92.86866753 -18.11405898 93.49592427 -29.19238281 92.875 C-36.55524466 92.16532657 -44.34633107 89.92326455 -49.7265625 84.63671875 C-58.63802864 72.94916761 -59.57315978 60.37463669 -59.53442383 46.27905273 C-59.53127059 43.88283462 -59.55475805 41.48786252 -59.58007812 39.09179688 C-59.63734814 25.46629913 -58.38139971 12.14664652 -48.4375 1.83203125 C-35.81758997 -8.6931806 -13.71337502 -8.16042387 0 0 Z " fill="#F8F8F8" transform="translate(102.21875,47.3203125)"/>
<path d="M0 0 C0.33 0 0.66 0 1 0 C1 31.02 1 62.04 1 94 C0.67 94 0.34 94 0 94 C-0.495 81.625 -0.495 81.625 -1 69 C-1.33 69 -1.66 69 -2 69 C-2 66.69 -2 64.38 -2 62 C-8.6 62 -15.2 62 -22 62 C-22 64.64 -22 67.28 -22 70 C-22.495 69.01 -22.495 69.01 -23 68 C-31.25 68 -39.5 68 -48 68 C-48.495 68.99 -48.495 68.99 -49 70 C-50.8170359 61.82694166 -51.27879932 54.04379053 -51.1875 45.6875 C-51.18685547 44.54732422 -51.18621094 43.40714844 -51.18554688 42.23242188 C-51.15816671 37.02106311 -50.95515272 32.13591095 -50 27 C-49.67 27.99 -49.34 28.98 -49 30 C-40.42 30 -31.84 30 -23 30 C-23 28.35 -23 26.7 -23 25 C-22.67 25 -22.34 25 -22 25 C-22 28.63 -22 32.26 -22 36 C-15.07 36 -8.14 36 -1 36 C-0.67 24.12 -0.34 12.24 0 0 Z " fill="#2037B0" transform="translate(114,44)"/>
<path d="M0 0 C10.23 0 20.46 0 31 0 C31 12.54 31 25.08 31 38 C20.77 38 10.54 38 0 38 C0 25.46 0 12.92 0 0 Z " fill="#1730B1" transform="translate(135,74)"/>
<path d="M0 0 C2.31 0 4.62 0 7 0 C8.38836235 3.87747039 9.77586485 7.7552473 11.16259766 11.63330078 C11.6337199 12.95044105 12.1050703 14.26749974 12.57666016 15.58447266 C13.25744776 17.48578435 13.93739358 19.38739533 14.6171875 21.2890625 C15.02565918 22.43068848 15.43413086 23.57231445 15.85498047 24.74853516 C16.93728189 27.82190196 17.97947543 30.90563836 19 34 C21.15164872 30.77252692 22.34037618 27.55455299 23.6015625 23.92578125 C23.8428891 23.2419487 24.0842157 22.55811615 24.33285522 21.8535614 C25.10082236 19.6745632 25.86297808 17.49358354 26.625 15.3125 C27.14545119 13.83254785 27.66628015 12.35272849 28.1875 10.87304688 C29.46271792 7.25022278 30.73272857 3.62561105 32 0 C34.64 0 37.28 0 40 0 C40 15.18 40 30.36 40 46 C38.02 46 36.04 46 34 46 C33.67 36.1 33.34 26.2 33 16 C32.28972656 18.08183594 31.57945312 20.16367188 30.84765625 22.30859375 C30.15996415 24.31770604 29.47126723 26.3264712 28.7824707 28.33520508 C28.30322682 29.73458422 27.8250332 31.13432349 27.34790039 32.53442383 C26.66306015 34.54343077 25.97448943 36.5511247 25.28515625 38.55859375 C24.87144775 39.76829834 24.45773926 40.97800293 24.03149414 42.22436523 C23 45 23 45 22 46 C20.33382885 46.04063832 18.66611905 46.042721 17 46 C12.84073776 36.18310776 9.49021234 26.0679202 6 16 C5.67 25.9 5.34 35.8 5 46 C3.35 46 1.7 46 0 46 C0 30.82 0 15.64 0 0 Z " fill="#DFDFDF" transform="translate(115,150)"/>
<path d="M0 0 C14.19 0 28.38 0 43 0 C42.31495008 5.48039934 41.57457608 10.10632302 40.15234375 15.34375 C39.82999756 16.54193359 39.50765137 17.74011719 39.17553711 18.97460938 C38.76698486 20.46798828 38.35843262 21.96136719 37.9375 23.5 C36.638125 28.285 35.33875 33.07 34 38 C22.78 38 11.56 38 0 38 C0 33.71 0 29.42 0 25 C10.56 25 21.12 25 32 25 C32 19.06 32 13.12 32 7 C21.44 7 10.88 7 0 7 C0 4.69 0 2.38 0 0 Z " fill="#1831B1" transform="translate(187,74)"/>
<path d="M0 0 C7.26 0 14.52 0 22 0 C23.95919258 3.58286594 25.91738786 7.16627068 27.875 10.75 C28.43058594 11.76578125 28.98617188 12.7815625 29.55859375 13.828125 C30.09355469 14.8078125 30.62851562 15.7875 31.1796875 16.796875 C31.67194824 17.69760742 32.16420898 18.59833984 32.67138672 19.52636719 C33.1098291 20.34266602 33.54827148 21.15896484 34 22 C34.38816895 22.70543945 34.77633789 23.41087891 35.17626953 24.13769531 C36 26 36 26 36 29 C24.12 29 12.24 29 0 29 C0 19.43 0 9.86 0 0 Z " fill="#F9F9F9" transform="translate(288,44)"/>
<path d="M0 0 C11.55 0 23.1 0 35 0 C35 8.58 35 17.16 35 26 C27.74 26 20.48 26 13 26 C11.01524646 22.41966027 9.03702671 18.83597359 7.0625 15.25 C6.49853516 14.23421875 5.93457031 13.2184375 5.35351562 12.171875 C4.81533203 11.1921875 4.27714844 10.2125 3.72265625 9.203125 C2.97640991 7.85202637 2.97640991 7.85202637 2.21508789 6.47363281 C1 4 1 4 0 0 Z " fill="#F9F9F9" transform="translate(323,112)"/>
<path d="M0 0 C0.66 0 1.32 0 2 0 C1.95617187 0.9178125 1.91234375 1.835625 1.8671875 2.78125 C1.87802576 7.94026198 1.89998077 12.2767193 4.73046875 16.7109375 C9.55727208 21.19008163 13.71752291 22.47522127 20.25 22.5625 C22.3577407 22.47971161 24.45440602 22.34638182 26.55761719 22.18505859 C30.32637158 21.89950123 34.09919058 21.71279211 37.87402344 21.52709961 C39.85464016 21.42671528 41.83458642 21.31193645 43.81347656 21.18188477 C44.71807617 21.12959717 45.62267578 21.07730957 46.5546875 21.0234375 C47.36405762 20.97106934 48.17342773 20.91870117 49.00732422 20.86474609 C51 21 51 21 53 23 C53.25 26 53.25 26 53 29 C51 31 51 31 48.68432617 31.13525391 C47.73017822 31.08288574 46.77603027 31.03051758 45.79296875 30.9765625 C44.7369043 30.92467773 43.68083984 30.87279297 42.59277344 30.81933594 C41.4690332 30.75520508 40.34529297 30.69107422 39.1875 30.625 C36.90501503 30.51680386 34.62246271 30.41001901 32.33984375 30.3046875 C30.69411377 30.22492676 30.69411377 30.22492676 29.01513672 30.14355469 C25.42554709 29.97264953 21.84298615 29.82476734 18.25 29.75 C17.32703125 29.72421875 16.4040625 29.6984375 15.453125 29.671875 C12.37929913 30.08302368 10.54523189 31.26500026 8 33 C7.0925 33.598125 6.185 34.19625 5.25 34.8125 C1.60297373 39.97912055 2.09196259 45.82178622 2 52 C1.34 52 0.68 52 0 52 C0 34.84 0 17.68 0 0 Z M7 19 C8 21 8 21 8 21 Z M6 22 C7 25 7 25 7 25 Z M48 25 C48 25.66 48 26.32 48 27 C48.66 27 49.32 27 50 27 C50 26.34 50 25.68 50 25 C49.34 25 48.68 25 48 25 Z M6 27 C7 30 7 30 7 30 Z " fill="#E4E5E5" transform="translate(383,66)"/>
<path d="M0 0 C6.27 0 12.54 0 19 0 C19 9.57 19 19.14 19 29 C12.73 29 6.46 29 0 29 C0 19.43 0 9.86 0 0 Z " fill="#FBFBFB" transform="translate(339,44)"/>
<path d="M0 0 C4.16685498 1.89402499 5.62273112 3.33349165 7.875 7.3125 C9 11 9 11 9 18 C1.74 18 -5.52 18 -13 18 C-11.66264005 24.49199874 -11.66264005 24.49199874 -9.3125 27 C-5.95550805 28.45167219 -3.50632251 27.77918278 0 27 C2.51083114 25.74458443 2.87125446 24.49936512 4 22 C5.65 22 7.3 22 9 22 C8.58565093 26.83407252 6.62206046 28.89537674 3 32 C-1.06779694 33.35593231 -4.74668259 33.53075585 -9 33 C-12.92367212 30.96550334 -15.7339527 28.81650072 -18 25 C-19.92929239 18.57801975 -19.69807933 11.8965449 -17.02734375 5.73046875 C-13.22475538 -0.67465158 -6.69001689 -1.0551734 0 0 Z M-12 7 C-12.33 9.31 -12.66 11.62 -13 14 C-7.72 14 -2.44 14 3 14 C2.71346336 7.46477246 2.71346336 7.46477246 0.3125 5.0625 C-4.29015365 2.94776724 -8.57860361 3.07173007 -12 7 Z " fill="#DEDFDF" transform="translate(304,164)"/>
<path d="M0 0 C2.92591241 2.56017335 3.90559373 4.60697355 4.22705078 8.49902344 C4.21657715 9.52543945 4.20610352 10.55185547 4.1953125 11.609375 C4.18886719 12.72441406 4.18242187 13.83945313 4.17578125 14.98828125 C4.15902344 16.14714844 4.14226562 17.30601562 4.125 18.5 C4.11597656 19.67433594 4.10695312 20.84867188 4.09765625 22.05859375 C4.07410063 24.95593536 4.04120652 27.85286441 4 30.75 C2.88496094 30.56566406 1.76992187 30.38132813 0.62109375 30.19140625 C-3.29570628 29.71395382 -3.72875957 30.06481554 -7 31.75 C-12.36921733 32.17612836 -15.61696956 32.20329671 -20 28.75 C-21.57422753 25.60154494 -21.66928343 22.15781928 -21 18.75 C-18.87910609 15.18184598 -17.58401391 13.94759362 -13.6171875 12.60546875 C-12.38226563 12.38503906 -11.14734375 12.16460937 -9.875 11.9375 C-8.63492188 11.70417969 -7.39484375 11.47085938 -6.1171875 11.23046875 C-3 10.75 -3 10.75 -1 10.75 C-1.60183749 8.72954558 -2.27306096 6.72888961 -3 4.75 C-5.95664519 3.2716774 -8.74229737 3.68967217 -12 3.75 C-12.99 5.73 -13.98 7.71 -15 9.75 C-16.65 9.75 -18.3 9.75 -20 9.75 C-19.52517335 5.57152545 -18.95940617 2.82322948 -16 -0.25 C-10.74605226 -2.00131591 -5.13561649 -2.1398402 0 0 Z M-8.5 15.5625 C-9.2734375 15.71332031 -10.046875 15.86414063 -10.84375 16.01953125 C-13.31243951 16.85584455 -14.44228679 17.66969913 -16 19.75 C-16 22.83333333 -16 22.83333333 -15 25.75 C-12.12351775 28.08984442 -12.12351775 28.08984442 -8.5625 27.625 C-4.61449693 26.65531504 -3.18694987 26.1616418 -1 22.75 C-0.67831845 19.99197626 -0.8137309 17.54403643 -1 14.75 C-3.68770041 14.75 -5.88219601 15.02585018 -8.5 15.5625 Z " fill="#E0E0E0" transform="translate(205,165.25)"/>
<path d="M0 0 C1.65 0 3.3 0 5 0 C5 22.44 5 44.88 5 68 C3.35 68 1.7 68 0 68 C0 45.56 0 23.12 0 0 Z " fill="#E4E4E4" transform="translate(377,58)"/>
<path d="M0 0 C1.32 0 2.64 0 4 0 C4 2.97 4 5.94 4 9 C7.3 9 10.6 9 14 9 C14 10.65 14 12.3 14 14 C10.7 14 7.4 14 4 14 C4.14070438 17.10447753 4.28734152 20.20847775 4.4375 23.3125 C4.47681641 24.19357422 4.51613281 25.07464844 4.55664062 25.98242188 C4.61948242 27.25375977 4.61948242 27.25375977 4.68359375 28.55078125 C4.72025146 29.33106689 4.75690918 30.11135254 4.79467773 30.9152832 C4.94125263 33.19329101 4.94125263 33.19329101 6 36 C8.64 36.33 11.28 36.66 14 37 C13.67 38.65 13.34 40.3 13 42 C3.99041534 42.30031949 3.99041534 42.30031949 1 40 C-0.95437205 36.85513418 -1.23798771 34.46694282 -1.1953125 30.796875 C-1.18564453 29.32734375 -1.18564453 29.32734375 -1.17578125 27.828125 C-1.15902344 26.81234375 -1.14226562 25.7965625 -1.125 24.75 C-1.11597656 23.71875 -1.10695312 22.6875 -1.09765625 21.625 C-1.07412011 19.08309713 -1.04124023 16.5416672 -1 14 C-2.65 14 -4.3 14 -6 14 C-6 12.35 -6 10.7 -6 9 C-4.35 9 -2.7 9 -1 9 C-1.020625 7.700625 -1.04125 6.40125 -1.0625 5.0625 C-1.08399454 3.70834367 -1.07148199 2.35243917 -1 1 C-0.67 0.67 -0.34 0.34 0 0 Z " fill="#DDDDDD" transform="translate(243,155)"/>
<path d="M0 0 C1.32 0.33 2.64 0.66 4 1 C4.84015157 4.74850603 5.67093219 8.49902832 6.5 12.25 C6.73847656 13.31347656 6.97695313 14.37695312 7.22265625 15.47265625 C7.44824219 16.49746094 7.67382812 17.52226563 7.90625 18.578125 C8.11572266 19.52075195 8.32519531 20.46337891 8.54101562 21.43457031 C9 24 9 24 9 28 C4.38 28 -0.24 28 -5 28 C-4.53241594 21.54733992 -3.50638755 15.76858214 -1.69921875 9.5625 C-0.82962996 6.37562712 -0.36434095 3.27906851 0 0 Z " fill="#2A41B8" transform="translate(250,73)"/>
<path d="M0 0 C0.66 0 1.32 0 2 0 C2.01417969 0.95261719 2.02835937 1.90523438 2.04296875 2.88671875 C2.01560391 9.68716563 2.01560391 9.68716563 4.1796875 15.9375 C5.68875187 17.34160573 5.68875187 17.34160573 8 19 C8 19.99 8 20.98 8 22 C7.34 22 6.68 22 6 22 C6 22.99 6 23.98 6 25 C6.66 25 7.32 25 8 25 C7.93976735 26.60520004 7.85091401 28.20934327 7.75 29.8125 C7.70359375 30.70582031 7.6571875 31.59914063 7.609375 32.51953125 C7 35 7 35 5 36.375 C2.63560582 37.93584573 2.63560582 37.93584573 2.390625 41.35546875 C2.34421875 42.62003906 2.2978125 43.88460937 2.25 45.1875 C2.19328125 46.45980469 2.1365625 47.73210937 2.078125 49.04296875 C2.05234375 50.01878906 2.0265625 50.99460938 2 52 C1.34 52 0.68 52 0 52 C0 34.84 0 17.68 0 0 Z M6 27 C7 30 7 30 7 30 Z " fill="#DCDDDD" transform="translate(383,66)"/>
<path d="M0 0 C0.99 0.495 0.99 0.495 2 1 C2 1.66 2 2.32 2 3 C2.66 3 3.32 3 4 3 C4 13.56 4 24.12 4 35 C2.68 35 1.36 35 0 35 C0 23.45 0 11.9 0 0 Z " fill="#FCFCFC" transform="translate(377,90)"/>
<path d="M0 0 C2.5 1.375 2.5 1.375 5 3 C5 3.66 5 4.32 5 5 C9.29 5 13.58 5 18 5 C18 6.65 18 8.3 18 10 C17.11957031 10.03738281 16.23914063 10.07476562 15.33203125 10.11328125 C13.58986328 10.21189453 13.58986328 10.21189453 11.8125 10.3125 C10.08966797 10.39951172 10.08966797 10.39951172 8.33203125 10.48828125 C4.85319896 11.02254506 2.85468362 11.9947326 0 14 C-0.19532961 12.2300132 -0.38098882 10.45895721 -0.5625 8.6875 C-0.66691406 7.70136719 -0.77132813 6.71523437 -0.87890625 5.69921875 C-1 3 -1 3 0 0 Z " fill="#F1F1F1" transform="translate(391,85)"/>
<path d="M0 0 C0.66 0.33 1.32 0.66 2 1 C-0.97 3.97 -3.94 6.94 -7 10 C-7 6.04435836 -5.59478606 4.89133304 -3 2 C-2.01 1.34 -1.02 0.68 0 0 Z " fill="#C5C5C5" transform="translate(57,47)"/>
</svg>
