<?xml version="1.0" standalone="no"?>
<!DOCTYPE svg PUBLIC "-//W3C//DTD SVG 20010904//EN"
 "http://www.w3.org/TR/2001/REC-SVG-20010904/DTD/svg10.dtd">
<svg version="1.0" xmlns="http://www.w3.org/2000/svg"
 width="32.000000px" height="32.000000px" viewBox="0 0 600.000000 400.000000"
 preserveAspectRatio="xMidYMid meet">

	<g transform="translate(0.000000,289.000000) scale(0.100000,-0.100000)"
	fill="#000000" stroke="none">
		<path d="M971 2209 c-189 -33 -270 -176 -271 -476 0 -202 34 -328 110 -403 64
-65 125 -85 255 -83 183 1 275 62 312 204 28 112 43 92 43 -61 l0 -130 604 0
c567 0 605 1 610 18 3 9 13 54 22 100 l17 82 117 0 116 0 13 -62 c7 -35 17
-80 22 -100 l10 -38 194 0 195 0 0 130 0 131 82 -3 81 -3 66 -127 66 -128 103
0 102 0 0 130 0 130 100 0 99 0 3 -67 c3 -60 5 -68 23 -68 20 0 20 8 23 329 1
182 -2 334 -6 338 -5 5 -16 6 -25 2 -14 -5 -17 -20 -17 -75 l0 -69 -100 0
-100 0 0 145 0 145 -90 0 -90 0 0 -145 0 -145 -74 0 -75 0 -73 145 -73 145
-102 0 -103 0 0 -145 0 -146 -82 3 -82 3 -35 143 -35 142 -136 0 -136 0 -35
-142 -35 -143 -227 -3 -227 -2 0 60 0 60 190 0 190 0 0 85 0 85 -285 0 -285 0
0 -145 0 -145 -160 0 -160 0 0 145 0 145 -100 0 -100 0 0 -145 c0 -116 -3
-145 -14 -145 -9 0 -16 18 -20 52 -16 118 -82 204 -178 233 -65 19 -172 26
-237 14z m167 -186 c13 -8 30 -30 38 -48 27 -66 29 -65 -125 -65 l-139 0 10
33 c15 50 39 76 83 92 44 16 97 12 133 -12z m1662 -94 c0 -10 -4 -19 -10 -19
-5 0 -10 12 -10 26 0 14 4 23 10 19 6 -3 10 -15 10 -26z m-1610 -418 c0 -23
-50 -77 -80 -88 -40 -15 -103 -9 -133 12 -20 14 -57 64 -57 78 0 4 61 7 135 7
74 0 135 -4 135 -9z m750 -36 l0 -45 -160 0 -160 0 0 45 0 45 160 0 160 0 0
-45z m535 8 c-4 -21 -9 -41 -11 -45 -3 -5 -79 -8 -170 -8 l-164 0 0 45 0 45
176 0 176 0 -7 -37z m685 -75 c0 -61 -3 -109 -6 -105 -6 6 -53 185 -54 205 0
7 13 12 30 12 l30 0 0 -112z"/>
		<path d="M4100 1720 c0 -172 3 -259 10 -255 6 3 10 35 10 70 0 54 3 66 23 82
20 16 22 26 21 100 0 71 -4 86 -22 106 -18 19 -22 35 -22 85 0 33 -4 64 -10
67 -7 4 -10 -83 -10 -255z"/>
		<path d="M4176 1764 c-10 -26 -7 -92 4 -99 6 -4 22 0 35 9 28 19 96 20 264 6
130 -10 151 -5 151 40 0 44 -21 50 -135 40 -155 -14 -258 -12 -281 5 -25 19
-31 18 -38 -1z m424 -44 c0 -5 -4 -10 -10 -10 -5 0 -10 5 -10 10 0 6 5 10 10
10 6 0 10 -4 10 -10z"/>
		<path d="M1420 911 c0 -224 1 -231 20 -231 19 0 20 7 20 188 0 106 4 181 9
172 5 -8 35 -93 67 -187 79 -232 78 -233 164 15 l65 187 3 -187 c2 -180 3
-188 22 -188 19 0 20 8 20 231 l0 230 -31 -3 c-31 -3 -32 -4 -95 -187 -35
-101 -65 -186 -67 -188 -2 -2 -33 81 -69 184 l-64 188 -32 3 -32 3 0 -230z"/>
		<path d="M2698 1038 c-2 -36 -7 -44 -25 -46 -13 -2 -23 -10 -23 -17 0 -7 10
-15 23 -17 21 -3 22 -8 24 -108 2 -58 5 -115 8 -128 11 -44 125 -69 125 -27 0
9 -10 15 -26 15 -59 0 -64 10 -64 135 l0 115 50 0 c38 0 50 4 50 15 0 11 -12
15 -50 15 l-50 0 0 45 c0 38 -3 45 -19 45 -16 0 -20 -8 -23 -42z"/>
		<path d="M2184 991 c-47 -20 -75 -101 -36 -101 12 0 21 11 27 33 9 29 14 32
56 35 54 3 79 -14 79 -57 0 -26 -3 -28 -71 -38 -88 -14 -119 -38 -119 -95 0
-55 14 -75 60 -89 35 -11 44 -9 90 13 46 23 50 24 50 6 0 -12 7 -18 21 -18 15
0 19 4 15 16 -3 9 -6 67 -6 129 0 105 -2 116 -23 141 -18 21 -34 27 -73 30
-27 2 -59 0 -70 -5z m126 -195 c0 -36 -5 -48 -26 -65 -29 -23 -74 -27 -105
-11 -23 13 -26 72 -4 90 17 14 66 27 108 29 26 1 27 -1 27 -43z"/>
		<path d="M3201 982 c-69 -35 -93 -149 -51 -238 38 -78 145 -95 210 -34 35 33
40 70 10 70 -11 0 -20 -7 -20 -15 0 -27 -42 -55 -81 -55 -47 0 -87 32 -95 78
l-6 32 111 0 111 0 0 35 c0 111 -96 175 -189 127z m104 -28 c19 -8 45 -55 45
-84 0 -19 -6 -20 -90 -20 -98 0 -100 2 -80 57 6 15 18 34 27 41 18 13 71 16
98 6z"/>
	</g>
</svg>
